<?xml version="1.0" encoding="UTF-8" standalone="no"?>
<!-- Created with Inkscape (http://www.inkscape.org/) -->

<svg
   width="218.83331mm"
   height="56.241909mm"
   viewBox="0 0 218.83331 56.241909"
   version="1.1"
   id="svg1"
   xml:space="preserve"
   xmlns:inkscape="http://www.inkscape.org/namespaces/inkscape"
   xmlns:sodipodi="http://sodipodi.sourceforge.net/DTD/sodipodi-0.dtd"
   xmlns="http://www.w3.org/2000/svg"
   xmlns:svg="http://www.w3.org/2000/svg"><sodipodi:namedview
     id="namedview1"
     pagecolor="#ffffff"
     bordercolor="#000000"
     borderopacity="0.25"
     inkscape:showpageshadow="2"
     inkscape:pageopacity="0.0"
     inkscape:pagecheckerboard="0"
     inkscape:deskcolor="#d1d1d1"
     inkscape:document-units="mm"><inkscape:page
       x="0"
       y="0"
       width="218.83331"
       height="56.241909"
       id="page2"
       margin="0"
       bleed="0" /></sodipodi:namedview><defs
     id="defs1" /><g
     inkscape:label="Capa 1"
     inkscape:groupmode="layer"
     id="layer1"
     transform="translate(-1.2460784,-117.6139)"><path
       style="fill:#367f3d;fill-opacity:1;stroke-width:0.711611"
       d="m 97.846533,656.69921 c -9.425069,-1.48268 -17.997336,-4.78104 -24.90639,-9.58325 -4.063893,-2.82465 -10.244963,-9.32522 -12.09739,-12.72272 -2.635785,-4.83423 -4.981278,-9.80503 -4.981278,-10.55683 0,-0.45146 -0.294291,-0.82085 -0.653981,-0.82085 -0.35969,0 -0.997418,-1.36095 -1.417174,-3.02435 -2.906304,-11.51697 -5.06149,-20.74229 -5.74095,-24.57428 -0.766092,-4.32056 -1.11948,-30.25471 -0.427517,-31.37433 0.187363,-0.30316 0.691571,-3.40968 1.120464,-6.90339 1.183692,-9.64219 4.777158,-26.61911 6.46581,-30.54696 0.336528,-0.78277 1.293364,-3.50468 2.126301,-6.04869 1.934658,-5.90896 4.932347,-13.66765 5.636305,-14.58803 0.299353,-0.39139 0.759037,-1.51218 1.02152,-2.49064 0.82707,-3.08309 -2.877061,3.20993 -7.453342,12.66264 -2.32952,4.81182 -4.235491,9.08546 -4.235491,9.49695 0,0.4115 -0.469441,1.59815 -1.043202,2.637 -2.025647,3.66765 -6.701687,19.13711 -8.207089,27.15102 -1.587133,8.449 -3.018649,24.6157 -2.631456,29.71812 0.745229,9.82061 2.648411,24.68335 3.347672,26.14336 0.374902,0.78277 1.017875,2.98487 1.42883,4.89355 0.410954,1.90868 1.081623,4.09522 1.490374,4.85898 0.408752,0.76376 0.564182,1.85513 0.3454,2.42526 -0.338779,0.88285 -0.689978,0.85192 -2.367533,-0.20846 -10.346219,-6.53982 -20.511627,-15.85704 -26.133405,-23.95285 -3.578555,-5.15341 -8.9232777,-15.28333 -8.9306445,-16.92637 -0.00241,-0.53778 -0.4846089,-1.89859 -1.0715503,-3.02402 -0.5869415,-1.12543 -1.3690024,-3.68723 -1.7379131,-5.69289 -0.3689106,-2.00566 -0.9935544,-5.08766 -1.3880972,-6.8489 -0.9266458,-4.13654 -0.9270578,-19.34395 -6.363e-4,-23.48317 0.394193,-1.76123 1.0052155,-4.74745 1.357828,-6.63604 0.7433334,-3.98129 5.6219374,-18.45613 6.3976824,-18.98196 0.288703,-0.19569 0.77052,-1.15637 1.070706,-2.13483 0.489246,-1.59472 7.627209,-14.24021 9.037819,-16.01125 0.311734,-0.39139 2.408979,-3.11282 4.660543,-6.04763 2.251565,-2.9348 4.574091,-5.82532 5.16117,-6.42338 0.58708,-0.59805 1.889187,-2.03955 2.893572,-3.20332 1.97524,-2.28869 12.442801,-12.31706 16.072541,-15.39817 6.612702,-5.61321 19.965909,-14.82123 28.356029,-19.55357 7.434173,-4.19316 8.681905,-4.73958 9.569683,-4.1909 0.955245,0.59038 7.153179,13.54412 7.153179,14.95022 0,0.53094 0.268192,1.07208 0.595989,1.20254 1.26792,0.50464 8.029849,22.17082 9.401849,30.12487 0.40506,2.34832 1.03157,5.71068 1.39225,7.47192 1.20566,5.88749 1.66883,30.38104 0.75357,39.85023 -0.47287,4.89232 -1.15707,9.19935 -1.52043,9.57117 -0.36337,0.37181 -0.66067,1.61216 -0.66067,2.75631 0,2.97171 -4.54394,16.14915 -7.623293,22.10756 -6.288166,12.16737 -14.794666,22.54701 -25.48043,31.09128 -3.971275,3.17541 -9.25836,7.16305 -10.913635,8.23131 -0.997645,0.64385 5.289132,12.96565 9.385937,18.39601 2.463144,3.26492 7.631063,8.18109 8.60158,8.18255 0.360566,5.4e-4 1.161129,0.43011 1.779028,0.95462 2.906597,2.46727 17.077344,6.16247 23.632503,6.16247 3.51363,0 6.17161,0.89437 7.18982,2.41926 1.1632,1.74206 0.55036,5.86658 -1.10239,7.41925 -1.42805,1.34158 -2.39767,1.53439 -7.29401,1.45036 -3.10587,-0.0533 -6.447591,-0.22285 -7.426057,-0.37678 z"
       id="path2"
       transform="scale(0.26458333)" /><path
       style="fill:#367f3d;fill-opacity:1;stroke-width:0.711611"
       d="m 270.33307,608.4358 c -8.62339,-1.87587 -13.99165,-6.03592 -17.37674,-13.46583 -3.09246,-6.78761 -3.85578,-13.99704 -2.56836,-24.25783 3.47133,-27.66667 19.58517,-51.80735 41.72841,-62.51472 9.81715,-4.74708 24.12883,-6.15203 33.11042,-3.25038 3.60628,1.16507 5.18712,2.16306 7.38937,4.66495 2.96286,3.366 5.04842,8.31432 5.03562,11.94785 -0.009,2.50466 -1.5234,7.85195 -3.06759,10.83028 -2.96797,5.72443 -9.94035,10.21338 -15.86373,10.21338 -4.04861,0 -4.45041,-1.03935 -2.10502,-5.44516 1.0068,-1.89126 1.83054,-3.8148 1.83054,-4.27453 0,-0.45973 0.36412,-0.95725 0.80915,-1.10559 0.46567,-0.15522 0.95557,-2.55112 1.15406,-5.644 0.33366,-5.19905 0.27434,-5.45322 -1.81889,-7.79521 -2.12065,-2.37264 -2.27494,-2.42008 -7.73646,-2.37841 -4.5872,0.035 -6.3067,0.39515 -9.72352,2.03657 -8.44778,4.05825 -16.24781,13.33141 -22.1938,26.38536 -1.42619,3.13109 -2.83739,6.17323 -3.136,6.76031 -0.29861,0.58708 -0.95456,2.82865 -1.45768,4.98127 -0.50311,2.15263 -1.17189,4.24142 -1.48617,4.64177 -0.31429,0.40035 -1.08193,4.41942 -1.70588,8.93127 -1.02668,7.4241 -1.03035,8.69818 -0.0387,13.41239 1.38847,6.60054 4.0086,10.13952 8.68717,11.73367 4.22984,1.44125 6.92418,1.42747 11.28292,-0.0577 3.83118,-1.30541 3.90956,-1.35671 8.91994,-5.83756 3.48697,-3.11845 7.04585,-9.33733 8.08954,-14.13588 0.27569,-1.26752 0.79684,-2.48726 1.15811,-2.71054 0.36128,-0.22328 0.65687,-1.02752 0.65687,-1.78719 0,-1.23413 -0.52431,-1.38123 -4.92308,-1.38123 -6.4377,0 -7.17431,-0.33162 -7.17431,-3.22992 0,-1.79521 0.4948,-2.71838 2.05087,-3.8264 4.53031,-3.22587 21.71286,-5.43391 26.53613,-3.41002 3.66931,1.53968 5.15117,4.05118 4.63072,7.84828 -0.22897,1.67049 -0.90981,3.98367 -1.51299,5.1404 -0.60318,1.15672 -1.09866,2.44327 -1.10107,2.85899 -0.002,0.41572 -0.61024,2.01684 -1.35073,3.55805 -1.54508,3.21583 -4.94986,13.15126 -7.17879,20.94829 -0.83914,2.9354 -1.81183,6.04142 -2.16154,6.90227 -0.81422,2.00429 -5.52424,3.32475 -10.24224,2.87141 -4.49226,-0.43165 -5.66003,-1.85742 -5.03041,-6.14179 l 0.45974,-3.12841 -3.43936,2.50534 c -5.28185,3.84749 -8.69912,5.32602 -15.12887,6.54572 -6.92251,1.31318 -8.22312,1.3188 -14.00766,0.0605 z"
       id="path3"
       transform="scale(0.26458333)" /><path
       style="fill:#367f3d;fill-opacity:1;stroke-width:0.711611"
       d="m 360.10069,608.44424 c -6.29575,-1.67798 -8.60801,-6.27644 -8.02648,-15.96249 0.41995,-6.99454 1.2777,-9.53228 8.05134,-23.82053 1.91662,-4.04289 1.93891,-4.21898 0.6531,-5.15918 -1.66256,-1.2157 -4.69361,-1.25674 -6.19736,-0.0839 -0.62727,0.48923 -2.50452,3.61142 -4.17165,6.93821 -4.43424,8.84853 -9.68371,17.1076 -12.55134,19.74721 -3.12093,2.87275 -6.361,3.17014 -6.99551,0.64207 -0.42161,-1.67985 0.72139,-4.16321 6.76423,-14.69639 1.45948,-2.54401 3.37359,-6.2266 4.25357,-8.18353 0.87998,-1.95693 1.92212,-4.23496 2.31587,-5.06228 0.53824,-1.1309 0.39728,-2.10225 -0.56796,-3.91386 -1.88217,-3.53253 -1.77607,-10.23958 0.2126,-13.43961 1.7886,-2.8781 4.98984,-4.98128 7.58198,-4.98128 2.25896,0 5.37338,3.10146 6.43126,6.4045 l 0.79768,2.49064 h 9.40847 c 9.33518,0 9.42387,0.0154 11.38578,1.97493 1.78283,1.78068 1.97282,2.44559 1.93173,6.7603 -0.0419,4.40458 -0.3817,5.43891 -4.26966,12.9981 -5.43424,10.56556 -5.96527,11.89397 -6.47499,16.19782 -0.63259,5.34124 0.0467,7.25616 2.57393,7.25616 3.28732,0 5.22996,-1.03941 9.73089,-5.20647 3.84624,-3.56094 4.28836,-4.28357 5.15002,-8.41748 1.36618,-6.55444 2.16321,-8.98887 4.50932,-13.77308 6.85772,-13.98436 20.44022,-23.50972 33.30176,-23.35443 6.81804,0.0823 10.91685,1.89638 14.45238,6.39633 1.31305,1.67121 1.55675,2.88422 1.54539,7.69207 -0.0127,5.39737 -0.16251,5.94031 -2.75219,9.97764 -3.70687,5.77905 -12.32694,12.53666 -19.29427,15.12552 -8.70328,3.2339 -12.26395,4.41577 -13.34271,4.42878 -1.51355,0.0182 -1.5139,0.0266 -0.14422,3.44974 3.8857,9.71131 18.80302,7.95369 32.63063,-3.84467 4.12732,-3.52163 5.31427,-4.97209 5.59212,-6.83366 1.24914,-8.36894 5.52942,-16.77495 12.14045,-23.84254 6.48486,-6.9327 11.58386,-9.93457 20.55165,-12.09906 4.69176,-1.13242 5.22634,-1.12914 9.70503,0.0595 5.85101,1.55287 8.52409,3.51955 10.69685,7.87008 1.3713,2.74576 1.59584,4.00468 1.21985,6.83903 -0.84356,6.35913 -5.00628,12.77411 -11.44659,17.63986 -4.43357,3.34963 -14.65271,8.08012 -21.88204,10.12931 -2.97443,0.84311 -3.38016,1.1916 -3.38016,2.90334 0,2.91402 4.24242,6.72261 8.1393,7.30699 3.49824,0.52459 5.34118,0.21673 11.43001,-1.9094 6.85932,-2.39517 11.82665,-6.12737 19.99062,-15.01994 1.34335,-1.46324 2.4287,-3.86584 4.31192,-9.54516 1.00382,-3.0273 2.2121,-6.46485 2.68505,-7.63901 0.47295,-1.17416 1.75917,-4.85675 2.85825,-8.18353 1.09909,-3.32678 2.62407,-6.73662 3.38885,-7.57742 2.67193,-2.93752 11.68292,-3.0007 14.79246,-0.10372 1.28549,1.19762 1.50121,1.96774 1.15596,4.12681 -0.23345,1.45993 -0.90581,3.5774 -1.49413,4.7055 -0.58833,1.12809 -1.07165,2.65348 -1.07407,3.38975 -0.003,0.98817 1.04784,0.27801 4.0145,-2.71243 8.48892,-8.55696 14.44835,-11.65517 24.80137,-12.89384 4.3233,-0.51726 8.82457,2.01316 10.82274,6.08407 1.77125,3.60861 1.99193,6.20533 0.84236,9.91204 -0.8761,2.82495 -5.35076,14.87286 -6.75831,18.1966 -3.68166,8.69372 -4.55098,11.32916 -4.55098,13.79678 0,3.68746 0.58088,5.06092 2.14045,5.06092 1.94938,0 9.43851,-5.95109 13.93647,-11.07434 4.31488,-4.9147 6.31034,-5.68452 7.38797,-2.85015 0.99346,2.613 -0.18938,5.61744 -4.19183,10.64738 -6.72573,8.45235 -13.04789,13.05266 -20.62157,15.00529 -8.82738,2.27585 -15.44392,-1.3209 -17.24638,-9.37513 -0.74852,-3.34475 -0.68505,-4.86405 0.44288,-10.60061 0.72414,-3.68295 1.58211,-6.69627 1.90659,-6.69627 0.32448,0 0.58997,-0.49044 0.58997,-1.08987 0,-1.23827 2.48052,-8.86356 3.928,-12.07494 1.45395,-3.22574 2.43892,-7.45345 2.00186,-8.59242 -1.51902,-3.95848 -13.30333,4.68359 -19.45047,14.26407 -6.27654,9.78215 -9.82739,17.44152 -11.77835,25.40648 -0.60655,2.47633 -1.44426,5.1918 -1.86157,6.03437 -1.61457,3.25988 -12.49357,4.06199 -15.71358,1.15857 -1.2215,-1.10141 -1.36243,-1.94259 -1.07669,-6.42647 0.31359,-4.92088 -0.13706,-6.29337 -1.37905,-4.20003 -0.31299,0.52753 -2.65053,2.48551 -5.19454,4.35106 -17.45964,12.80337 -38.2017,11.17001 -45.16863,-3.55687 -1.01167,-2.1385 -1.95004,-3.88818 -2.08527,-3.88818 -0.13523,0 -1.69563,1.38907 -3.46756,3.08683 -6.63446,6.35673 -13.76951,10.15184 -22.90887,12.18515 -11.81933,2.62956 -22.14116,-1.28081 -27.32103,-10.35042 l -1.96981,-3.44901 -4.20071,4.245 c -2.31039,2.33476 -4.61102,4.24501 -5.1125,4.24501 -0.50149,0 -0.91179,0.25333 -0.91179,0.56295 0,0.82706 -7.07048,4.20438 -9.96256,4.75876 -1.36985,0.26259 -2.97098,0.58907 -3.55806,0.72552 -0.58707,0.13645 -2.65709,-0.1756 -4.60002,-0.69344 z m 49.04188,-30.20543 c 0.22329,-0.36128 1.36297,-0.86706 2.53264,-1.12396 1.16967,-0.2569 2.12667,-0.7403 2.12667,-1.07421 0,-0.33392 0.62081,-0.80415 1.37958,-1.04498 0.75876,-0.24082 3.12215,-2.15282 5.25197,-4.24888 4.24477,-4.17749 6.42144,-8.69142 6.05307,-12.55272 -0.21527,-2.25653 -0.42391,-2.44154 -2.99074,-2.65202 -2.5216,-0.20678 -3.07336,0.0997 -6.4045,3.55805 -2.25433,2.34039 -4.76931,6.09226 -6.59134,9.83302 -3.52963,7.24658 -4.29358,9.96256 -2.80229,9.96256 0.57144,0 1.22166,-0.29559 1.44494,-0.65686 z m 58.26961,-0.78821 c 3.46487,-1.53268 9.18503,-5.62537 11.31965,-8.09906 2.22857,-2.58255 4.10774,-6.70749 4.56049,-10.01067 0.39773,-2.90171 0.28375,-3.24919 -1.25206,-3.81732 -3.48676,-1.28984 -8.0456,1.39506 -11.5808,6.82045 -3.43179,5.2667 -7.91768,16.55167 -6.57945,16.55167 0.14594,0 1.73542,-0.65028 3.53217,-1.44507 z"
       id="path4"
       transform="scale(0.26458333)" /><path
       style="fill:#367f3d;fill-opacity:1;stroke-width:0.711611"
       d="m 576.41231,625.02899 c -1.86761,-1.46907 -1.94171,-1.75474 -1.51476,-5.83964 0.24691,-2.36226 0.76715,-4.61324 1.1561,-5.00219 0.38895,-0.38895 0.70719,-1.24897 0.70719,-1.91114 0,-1.19316 5.14093,-17.47873 6.38151,-20.21554 0.35483,-0.78278 0.85103,-2.22379 1.10267,-3.20225 0.84062,-3.26862 5.41002,-18.11384 6.35206,-20.63673 0.51149,-1.36985 1.57443,-4.5721 2.36207,-7.11611 l 1.43209,-4.62547 -5.06122,-0.21231 c -5.61049,-0.23534 -7.5879,-1.3459 -7.5879,-4.26153 0,-1.09928 0.95638,-2.6646 2.5413,-4.15937 2.44689,-2.30771 2.75178,-2.39676 8.20586,-2.39676 3.91957,0 5.74408,-0.27402 5.9227,-0.88952 4.3918,-15.13358 10.85708,-27.20489 17.64528,-32.94545 1.28306,-1.08504 4.35166,-2.92069 6.81912,-4.07922 4.13516,-1.94156 4.97059,-2.08287 10.67417,-1.80556 6.22148,0.30251 8.47249,1.12911 11.65327,4.27925 4.69611,4.65086 4.57778,13.86762 -0.26555,20.68494 -2.71827,3.82613 -11.38866,6.39868 -12.42895,3.68772 -0.23328,-0.6079 0.41814,-3.08964 1.4476,-5.51498 2.11764,-4.98906 2.49182,-10.47773 0.80947,-11.87396 -1.51689,-1.2589 -4.16182,-0.37109 -6.82324,2.29033 -2.29195,2.29195 -8.45908,14.12437 -8.47648,16.26319 -0.005,0.6197 -0.23349,1.35105 -0.50767,1.62523 -0.27418,0.27417 -1.04009,2.2489 -1.70202,4.38826 l -1.20351,3.88977 h 7.38051 c 10.71956,0 15.33004,2.24173 13.11658,6.37762 -1.7204,3.21459 -4.05133,3.92127 -14.17175,4.29654 l -9.59552,0.35581 -0.6409,2.49064 c -0.3525,1.36985 -0.89528,2.81086 -1.20619,3.20225 -0.31091,0.39138 -0.8031,1.82189 -1.09376,3.17889 -0.29065,1.35701 -0.78468,2.95813 -1.09784,3.55806 -0.31316,0.59992 -1.41711,3.9728 -2.45323,7.49527 -1.03611,3.52248 -2.16682,7.04495 -2.51268,7.82772 -0.34587,0.78278 -0.99374,2.86424 -1.43973,4.62548 -0.44599,1.76123 -1.05292,3.52247 -1.34873,3.91386 -0.29582,0.39138 -0.87437,1.99251 -1.28567,3.55805 -0.78275,2.97946 -4.87947,15.33666 -5.89791,17.79028 -0.32491,0.78278 -1.08799,3.18446 -1.69574,5.33709 -0.60775,2.15262 -1.34806,4.23408 -1.64513,4.62547 -1.23685,1.62951 -3.97047,2.49064 -7.90643,2.49064 -3.21544,0 -4.6377,-0.35739 -6.14704,-1.54463 z"
       id="path5"
       transform="scale(0.26458333)" /><path
       style="fill:#367f3d;fill-opacity:1;stroke-width:0.711611"
       d="m 637.92894,608.49898 c -3.58342,-0.93553 -5.57979,-2.60215 -7.33746,-6.12547 -1.28609,-2.57803 -1.58901,-8.90353 -0.45981,-9.60142 0.39139,-0.24189 0.71161,-1.04915 0.71161,-1.79392 0,-1.47551 2.34443,-8.8489 5.31244,-16.70797 1.03466,-2.7397 2.20446,-6.10207 2.59956,-7.47192 0.39511,-1.36985 1.17823,-3.49971 1.74027,-4.73302 0.56205,-1.2333 1.0219,-2.73547 1.0219,-3.33815 0,-0.60268 0.28084,-1.26935 0.62409,-1.48149 0.34325,-0.21213 0.98535,-1.82041 1.42689,-3.57395 1.19244,-4.73559 5.19727,-8.6 9.50247,-9.1693 1.99225,-0.26344 4.46504,-0.0881 6.0487,0.42888 2.55014,0.83251 2.68923,1.03788 2.89657,4.27699 0.19865,3.10322 -1.3159,8.33533 -4.16487,14.38779 -1.13831,2.41827 -5.6523,14.90255 -5.6606,15.65545 -0.004,0.39138 -0.47475,1.60674 -1.04542,2.7008 -1.37097,2.62837 -2.72245,10.23911 -2.19289,12.34904 0.56675,2.25813 2.31461,2.12384 6.24548,-0.47986 5.71893,-3.78806 8.84651,-7.79685 9.76933,-12.52189 0.97299,-4.98185 3.32989,-11.76051 5.28944,-15.2129 6.10501,-10.75595 16.85594,-19.14201 27.86321,-21.73418 4.74073,-1.11642 5.47546,-1.12249 9.58679,-0.0791 8.60862,2.1847 12.1408,7.07063 11.15132,15.42523 -1.26908,10.7154 -13.36793,20.9249 -31.26369,26.38154 -5.95844,1.81681 -6.31008,2.31371 -4.19148,5.92307 2.30027,3.91887 4.63548,5.04608 10.29405,4.96893 4.36015,-0.0594 5.89434,-0.45437 10.51123,-2.70579 7.36485,-3.59148 15.37083,-10.87131 15.96307,-14.51522 0.2355,-1.44897 1.23184,-5.67663 2.21409,-9.3948 0.98225,-3.71817 2.09335,-8.04121 2.46912,-9.60675 0.37576,-1.56555 1.1523,-3.85552 1.72563,-5.08883 0.57333,-1.2333 1.04242,-2.55084 1.04242,-2.92784 0,-1.92646 12.22503,-31.75021 13.48641,-32.90097 0.2145,-0.1957 0.87858,-1.30928 1.47572,-2.47463 1.33384,-2.60304 4.53792,-4.82335 9.83238,-6.81347 5.01892,-1.88656 8.83166,-1.5298 11.42833,1.06934 1.70964,1.71127 1.84753,2.31605 1.83736,8.05878 -0.0122,6.85722 -0.9836,10.65325 -5.47165,21.38119 -5.72177,13.67696 -11.09355,22.28711 -19.70488,31.58393 -3.23146,3.4887 -4.30679,6.71948 -4.82163,14.48634 -0.44949,6.7809 0.23459,9.56252 2.35171,9.56252 2.51127,0 6.59833,-2.74112 11.46681,-7.69059 4.58832,-4.66465 5.32763,-5.80614 6.69707,-10.34014 2.146,-7.10508 8.41869,-17.29415 14.07101,-22.85629 9.57823,-9.42542 17.98131,-12.89142 26.76736,-11.04067 1.93828,0.40829 3.96511,0.811 4.50406,0.89492 0.95251,0.1483 2.34411,-3.69429 6.51635,-17.99351 0.85649,-2.9354 1.97923,-6.7781 2.49497,-8.53934 0.51574,-1.76123 1.12661,-4.08267 1.35747,-5.15874 1.07415,-5.00651 15.23318,-9.17701 18.85616,-5.55403 1.09236,1.09236 1.25467,1.80584 0.76893,3.38016 -1.49371,4.84125 -5.26195,15.71261 -6.15549,17.75852 -0.53863,1.23331 -0.97933,2.51421 -0.97934,2.84645 0,0.33223 -0.97279,3.6462 -2.16175,7.36437 -1.18896,3.71817 -2.84056,9.00188 -3.67022,11.74158 -1.35737,4.48228 -5.15032,16.04019 -8.05676,24.55059 -0.60149,1.76123 -1.40171,3.8427 -1.77826,4.62547 -1.28614,2.67365 -3.52812,10.67074 -3.53732,12.61754 -0.0134,2.84055 2.60799,3.2943 6.14009,1.06281 3.20377,-2.02405 8.97335,-7.7429 11.9303,-11.82538 2.31314,-3.19362 3.18222,-3.70948 5.31139,-3.15269 1.82336,0.47682 2.47031,2.34424 1.60271,4.62621 -1.22634,3.22551 -9.4319,13.39236 -13.49109,16.71573 -10.07696,8.25027 -21.96754,10.3945 -26.39919,4.76057 -0.76905,-0.97768 -1.61543,-3.22572 -1.88084,-4.99566 l -0.48258,-3.21805 -4.00109,3.83283 c -5.02946,4.81797 -9.02676,6.97036 -13.87404,7.47065 -4.32294,0.44616 -8.0045,-0.53888 -10.61647,-2.84056 -2.38115,-2.09828 -4.77276,-6.75807 -4.77276,-9.2992 0,-1.99292 -0.14775,-1.90735 -4.77445,2.7651 -11.7299,11.84589 -27.42427,12.88926 -30.2,2.0077 -0.38404,-1.50553 -0.91769,-3.59653 -1.18589,-4.64667 l -0.48764,-1.90934 -3.12098,2.83115 c -6.94103,6.29648 -13.90666,9.79533 -22.51433,11.30902 -4.25045,0.74746 -5.83113,0.70685 -10.56102,-0.27131 -7.30359,-1.51041 -12.21166,-5.08722 -15.07256,-10.98429 l -1.14363,-2.35733 -1.88448,2.41772 c -3.49263,4.48092 -10.3553,9.06052 -15.51077,10.35066 -5.20137,1.30161 -7.04448,1.4015 -10.27894,0.55707 z m 143.56573,-16.97221 c 4.47161,-4.6115 11.8738,-18.07242 15.56471,-28.30449 1.44232,-3.99847 1.62844,-5.23571 0.97206,-6.46216 -0.68697,-1.2836 -1.28041,-1.46404 -3.85926,-1.17336 -1.6761,0.18892 -3.80597,0.92147 -4.73305,1.62788 -3.72089,2.83527 -8.6349,9.63882 -12.36834,17.12427 -4.25386,8.52885 -5.71679,15.40415 -3.97158,18.66511 1.44361,2.69739 4.94485,2.08132 8.39546,-1.47725 z m -92.33856,-14.94384 c 9.08327,-4.93146 14.63801,-12.02804 14.14098,-18.0661 -0.5178,-6.2904 -7.4709,-2.99567 -13.65715,6.47146 -1.9272,2.94928 -6.13743,12.2507 -6.13743,13.55906 0,0.78821 1.6209,0.22501 5.6536,-1.96442 z m 57.06326,-24.52349 c 6.82715,-11.95433 11.2907,-23.00161 11.2907,-27.94446 0,-1.5729 -0.26787,-2.85981 -0.59525,-2.85981 -0.32738,0 -1.48242,1.84129 -2.56674,4.09176 -2.7333,5.67286 -2.99286,6.28729 -5.03519,11.91949 -0.99347,2.7397 -2.08799,5.62173 -2.43227,6.4045 -0.57845,1.3152 -1.35093,3.59757 -3.91336,11.5624 -1.34634,4.18484 -0.452,3.31201 3.25211,-3.17388 z"
       id="path6"
       transform="scale(0.26458333)" /><path
       style="fill:#367f3d;fill-opacity:1;stroke-width:0.711611"
       d="m 653.18787,533.77952 c -1.88714,-1.88714 -2.41947,-3.00378 -2.41947,-5.07518 0,-5.70988 6.10626,-11.12583 12.54392,-11.12583 2.76598,0 3.69053,0.36918 5.52918,2.20782 4.42785,4.42785 2.22649,11.34995 -4.71143,14.81491 -4.7597,2.37711 -7.98562,2.13486 -10.9422,-0.82172 z"
       id="path7"
       transform="scale(0.26458333)" /><path
       style="fill:#48311a;fill-opacity:1;stroke-width:0.711611"
       d="m 142.04223,652.78114 c -9.94859,-3.08797 -17.1005,-10.15285 -20.8271,-20.57364 l -1.63302,-4.56647 -0.24227,-74.21616 c -0.15038,-46.06606 0.0272,-76.90553 0.46809,-81.30653 0.8063,-8.0479 2.64093,-12.77329 6.8229,-17.57353 3.34173,-3.83577 9.7029,-7.57733 15.33608,-9.02048 15.1059,-3.86996 31.26714,3.74436 39.49393,18.60744 2.73824,4.94708 2.99302,5.18586 6.70203,6.28125 3.63526,1.07361 9.33145,4.35866 12.51689,7.21862 2.29562,2.06107 6.47224,7.47992 7.8446,10.1778 1.50707,2.96268 3.89157,12.15705 3.89157,15.00543 0,1.50038 0.90722,2.86481 3.54603,5.3331 4.43364,4.14716 8.19049,9.7529 10.09627,15.06503 2.11572,5.89735 2.11073,17.84049 -0.0103,24.72759 -0.84377,2.7397 -2.27623,6.26217 -3.18325,7.82772 l -1.64913,2.84644 1.65677,2.66687 c 0.91123,1.46678 2.12884,4.66903 2.70581,7.11611 3.69275,15.66205 -3.38658,33.1086 -16.89827,41.64468 -4.44716,2.80952 -4.44747,2.80994 -5.32454,7.45162 -2.06936,10.95138 -12.85776,23.81235 -25.09669,29.918 -12.95412,6.46244 -26.31331,8.44295 -36.21636,5.36911 z m 22.21756,-10.16323 c 12.19802,-3.26854 22.01624,-10.80829 27.51924,-21.13297 1.87152,-3.51133 2.43601,-5.52189 2.69844,-9.61112 0.37294,-5.81118 0.82654,-6.45135 5.89382,-8.31803 10.44208,-3.84664 16.67548,-14.00215 16.66501,-27.15076 -0.006,-6.98208 -1.20839,-10.37037 -4.90692,-13.82255 -2.28992,-2.13739 -2.33498,-3.9057 -0.17194,-6.747 5.95021,-7.81599 8.26027,-18.93137 5.71792,-27.51295 -1.69635,-5.72595 -3.93205,-9.07625 -9.78019,-14.65611 l -5.25798,-5.01679 -0.3054,-6.32833 c -0.36324,-7.52672 -2.09387,-11.62061 -6.9823,-16.51695 -3.5213,-3.52699 -9.16539,-6.49789 -12.46542,-6.56147 -3.90182,-0.0752 -6.9701,-2.15469 -7.89168,-5.34855 -2.11628,-7.33425 -7.34788,-13.76157 -13.9151,-17.0955 -3.06117,-1.55404 -5.08937,-2.00222 -10.30581,-2.27733 -5.8212,-0.30701 -6.89106,-0.16004 -10.31837,1.41743 -4.63339,2.13259 -8.14855,5.55597 -9.95151,9.69166 -1.26239,2.89574 -1.34418,5.3886 -1.34418,40.97104 v 37.88769 l 10.23964,-10.37175 c 5.6318,-5.70447 10.81539,-11.49255 11.51908,-12.8624 0.95574,-1.86049 1.35673,-4.67361 1.58489,-11.11866 l 0.30543,-8.62801 -2.23393,-1.31961 c -1.22866,-0.72579 -3.08726,-2.55098 -4.13022,-4.05597 -2.55567,-3.68782 -2.69616,-10.34336 -0.30018,-14.22014 3.37759,-5.46505 8.52297,-8.12513 14.2089,-7.34579 12.83332,1.759 16.25717,20.02087 4.88476,26.05392 l -3.14139,1.6665 -0.39688,9.466 c -0.58167,13.87295 -0.78389,14.22498 -18.32504,31.89995 l -14.21506,14.32353 v 34.59517 c 0,33.33694 0.0533,34.71942 1.46423,38.01107 2.87607,6.7096 7.03397,10.56658 13.83541,12.83411 3.55205,1.18421 13.96953,0.76371 19.80273,-0.79933 z m -2.10133,-152.03999 c 0.9912,-2.83552 0.0469,-5.36628 -2.30862,-6.18743 -4.31876,-1.50553 -7.95925,2.86129 -5.50632,6.60493 1.05161,1.60496 1.65224,1.84202 4.19653,1.65627 2.46675,-0.18009 3.07912,-0.53105 3.61841,-2.07377 z"
       id="path8"
       transform="scale(0.26458333)" /><path
       style="fill:#48311a;fill-opacity:1;stroke-width:0.711611"
       d="m 144.41517,624.85133 c -1.32682,-0.97079 -1.38133,-2.11513 -1.38133,-28.99816 0,-26.64649 0.0682,-28.11203 1.42322,-30.58718 0.78278,-1.42984 7.82773,-9.2222 15.65545,-17.31634 l 14.23222,-14.71663 v -5.93253 c 0,-6.6024 0.6677,-8.03886 5.5875,-12.02079 2.17456,-1.76002 3.45123,-2.19506 7.12871,-2.42923 7.49123,-0.477 12.81647,3.36269 14.76436,10.64563 0.82181,3.07266 0.75063,3.54282 -1.11301,7.35198 -1.4762,3.01723 -2.84244,4.61606 -5.28413,6.18369 -3.02069,1.93938 -3.72463,2.09405 -8.50832,1.86943 l -5.21516,-0.24487 -11.15189,11.65613 c -6.13354,6.41088 -12.67296,13.25072 -14.53205,15.19967 l -3.38015,3.54352 v 10.2571 c 0,5.64139 0.24017,10.25613 0.53371,10.25497 0.29354,-10e-4 3.35649,-2.87388 6.80655,-6.38382 6.06553,-6.1708 8.77006,-7.82975 12.78509,-7.84232 0.69721,-0.002 1.46725,-0.56436 1.7112,-1.24928 0.93919,-2.63695 5.32516,-7.22538 8.26854,-8.65025 6.09402,-2.95006 12.8808,-1.05939 17.39496,4.84591 2.08027,2.72136 2.31156,3.50271 2.30103,7.77352 -0.0149,6.03913 -1.8782,9.55397 -6.76107,12.75368 -2.95728,1.93789 -4.19842,2.31273 -7.65756,2.31273 -4.96919,0 -8.84353,-1.76831 -11.68968,-5.33535 -3.31754,-4.15784 -4.38545,-3.67677 -14.62999,6.59056 l -9.06278,9.08295 v 8.66101 c 0,8.45919 -0.64958,12.09003 -2.35725,13.17586 -1.36746,0.8695 -4.37937,0.63772 -5.86817,-0.45159 z m 47.30944,-42.10506 c 1.36453,-1.14818 2.18943,-2.50934 2.18943,-3.61279 0,-2.18602 -3.59453,-5.9307 -5.69289,-5.9307 -1.98089,0 -5.69289,3.712 -5.69289,5.69289 0,1.92915 3.69146,5.69289 5.58355,5.69289 0.78285,0 2.40861,-0.82903 3.6128,-1.84229 z m -1.41952,-51.85803 c 3.28009,-1.69621 3.8262,-4.63875 1.35007,-7.27447 -1.8373,-1.95571 -5.22454,-2.17916 -7.11394,-0.46928 -1.99122,1.80203 -1.69929,5.52208 0.57365,7.30997 2.23151,1.75531 2.57856,1.78432 5.19022,0.43378 z"
       id="path9"
       transform="scale(0.26458333)" /></g></svg>
